<svg width="41" height="40" viewBox="0 0 41 40" fill="none" xmlns="http://www.w3.org/2000/svg">
<g id="Frame" clip-path="url(#clip0_2509_1765)">
<path id="Vector" d="M36.3922 27.0522C35.62 25.93 36.0511 24.3078 35.8589 22.5167C35.6611 19.5944 34.4056 16.7633 31.97 14.4989L23.6744 6.78555C23.6744 6.78555 22.04 5.26444 20.5178 6.9C18.9978 8.53444 20.6333 10.0556 20.6333 10.0556L24.1378 13.3156L27.1756 16.14C27.1756 16.14 26.4144 16.9578 23.0522 13.8311L11.6967 3.26889C11.6967 3.26889 10.06 1.74889 8.53889 3.38444C7.01889 5.01889 8.65334 6.54 8.65334 6.54L19.3911 16.5278C19.3678 16.5056 18.5789 17.2967 18.5644 17.2833L7.07556 6.59778C7.07556 6.59778 5.44 5.07667 3.91889 6.71222C2.39778 8.34778 4.03334 9.86778 4.03334 9.86778L15.5233 20.5556C15.5367 20.5689 14.7967 21.4044 14.8189 21.4256L4.90778 12.2056C4.90778 12.2056 3.27223 10.6844 1.75111 12.32C0.230003 13.9556 1.86556 15.4767 1.86556 15.4767L12.4033 25.2767C12.5 25.3667 11.8478 26.2856 11.9689 26.3978L4.37556 19.3356C4.37556 19.3356 2.74 17.8144 1.21889 19.4511C-0.302219 21.0867 1.33334 22.6078 1.33334 22.6078L13.7189 34.1222C15.7867 36.0456 17.91 37.0189 20.47 37.3756C20.9911 37.4478 21.6578 37.4478 21.9311 37.4822C22.7944 37.5911 23.5522 37.8978 24.5667 38.52C25.8722 39.32 27.8311 39.6533 28.9567 38.45L32.7944 34.3444L36.3378 30.5533C37.4622 29.3511 37.2611 28.3133 36.3922 27.0522Z" fill="#EF9645"/>
<path id="Vector_2" d="M2.672 38.9177C2.38755 38.9177 2.10311 38.8088 1.88644 38.5922C1.452 38.1577 1.452 37.4555 1.88644 37.0211L5.832 33.0777C6.26644 32.6433 6.96866 32.6433 7.40311 33.0777C7.83755 33.5122 7.83755 34.2144 7.40311 34.6488L3.45755 38.5933C3.24088 38.8099 2.95644 38.9177 2.672 38.9177ZM10.1676 39.9422C10.0464 39.9422 9.922 39.9222 9.79977 39.8799C9.22088 39.6777 8.91533 39.0444 9.11866 38.4644L10.1976 35.3833C10.3998 34.8044 11.0342 34.4999 11.6131 34.7011C12.192 34.9044 12.4976 35.5377 12.2942 36.1166L11.2153 39.1977C11.0553 39.6555 10.6264 39.9422 10.1676 39.9422ZM1.64866 31.4233C1.19088 31.4233 0.761995 31.1377 0.600884 30.6822C0.39644 30.1033 0.699773 29.4688 1.27866 29.2644L4.05088 28.2855C4.632 28.0855 5.26422 28.3866 5.46866 28.9633C5.67311 29.5422 5.36977 30.1766 4.79088 30.3811L2.01866 31.3599C1.89533 31.4033 1.77088 31.4233 1.64866 31.4233ZM34.382 7.23772C34.0975 7.23772 33.8131 7.12883 33.5964 6.91216C33.162 6.47772 33.162 5.77438 33.5964 5.33994L37.5431 1.3955C37.9775 0.962162 38.6798 0.962162 39.1142 1.3955C39.5487 1.82883 39.5487 2.53327 39.1142 2.96772L35.1675 6.91216C34.9509 7.12994 34.6664 7.23772 34.382 7.23772ZM29.7553 5.35216C29.6342 5.35216 29.5098 5.33105 29.3887 5.28883C28.8098 5.08661 28.5042 4.45327 28.7064 3.87327L29.7842 0.792162C29.9875 0.213273 30.6198 -0.0922828 31.1998 0.109939C31.7787 0.312162 32.0842 0.945495 31.882 1.5255L30.8042 4.60661C30.6442 5.0655 30.2142 5.35216 29.7553 5.35216ZM36.5809 11.7677C36.1231 11.7677 35.6942 11.4822 35.5331 11.0266C35.3287 10.4477 35.6331 9.81327 36.2109 9.60883L38.982 8.62994C39.562 8.42438 40.1953 8.72994 40.3998 9.30772C40.6042 9.88661 40.2998 10.5211 39.722 10.7255L36.9509 11.7044C36.8275 11.7477 36.7031 11.7677 36.5809 11.7677Z" fill="#A992FE"/>
<path id="Vector_3" d="M39.8237 26.4688C39.0892 25.3222 39.5748 23.7144 39.4437 21.9177C39.3437 18.9911 38.1848 16.1188 35.827 13.7733L27.7959 5.7855C27.7959 5.7855 26.2137 4.21105 24.637 5.79439C23.0626 7.37661 24.6459 8.95217 24.6459 8.95217L28.0392 12.3288L30.9792 15.2533C30.9792 15.2533 30.1904 16.0444 26.9359 12.8066C23.6792 9.56772 15.9426 1.86772 15.9426 1.86772C15.9426 1.86772 14.3592 0.293276 12.7837 1.87661C11.2081 3.45883 12.7915 5.03328 12.7915 5.03328L23.187 15.3777C23.1648 15.3555 22.3492 16.1188 22.3348 16.1044L11.2126 5.03772C11.2126 5.03772 9.62924 3.46216 8.05369 5.0455C6.47924 6.62883 8.06147 8.20328 8.06147 8.20328L19.1848 19.2722C19.1981 19.2855 18.4292 20.0955 18.4515 20.1177L8.85702 10.5699C8.85702 10.5699 7.27369 8.9955 5.69813 10.5788C4.12258 12.1622 5.70591 13.7377 5.70591 13.7377L15.907 23.8877C16.0004 23.9799 15.3181 24.8777 15.4348 24.9944L8.08369 17.6799C8.08369 17.6799 6.50035 16.1055 4.9248 17.6888C3.34924 19.2722 4.93258 20.8477 4.93258 20.8477L16.9215 32.7722C18.9237 34.7644 21.0126 35.8077 23.5592 36.2511C24.0781 36.3411 24.7448 36.3633 25.0159 36.4066C25.8748 36.5444 26.6215 36.8766 27.6159 37.5333C28.8937 38.3766 30.8404 38.7755 32.0059 37.6111L35.9804 33.6377L39.6492 29.9688C40.8148 28.8022 40.6492 27.7577 39.8237 26.4688Z" fill="#FFDD62"/>
</g>
<defs>
<clipPath id="clip0_2509_1765">
<rect width="40" height="40" fill="white" transform="translate(0.5)"/>
</clipPath>
</defs>
</svg>
