<svg width="52" height="52" viewBox="0 0 52 52" fill="none" xmlns="http://www.w3.org/2000/svg">
<rect width="52" height="52" rx="10" fill="#2C2F32"/>
<path d="M15.186 23.2348C13.8487 20.8914 14.5874 17.9269 16.8359 16.6135C19.0844 15.3001 21.9912 16.135 23.3285 18.4785L29.1985 28.7652C30.5358 31.1086 29.797 34.0731 27.5485 35.3866C25.3001 36.7 22.3932 35.865 21.056 33.5216L15.186 23.2348Z" fill="url(#paint0_linear_1233_24559)"/>
<path d="M39.2344 20.6918C39.2344 23.3235 37.134 25.457 34.543 25.457C31.952 25.457 29.8516 23.3235 29.8516 20.6918C29.8516 18.06 31.952 15.9265 34.543 15.9265C37.134 15.9265 39.2344 18.06 39.2344 20.6918Z" fill="url(#paint1_linear_1233_24559)"/>
<defs>
<linearGradient id="paint0_linear_1233_24559" x1="16.8359" y1="16.6135" x2="27.441" y2="35.002" gradientUnits="userSpaceOnUse">
<stop stop-color="#1DC071"/>
<stop offset="1" stop-color="#77D9AA"/>
</linearGradient>
<linearGradient id="paint1_linear_1233_24559" x1="34.543" y1="15.9265" x2="34.52" y2="25.2864" gradientUnits="userSpaceOnUse">
<stop stop-color="#1DC071"/>
<stop offset="1" stop-color="#77D9AA"/>
</linearGradient>
</defs>
</svg>
